<svg width="100" height="100" viewBox="0 0 100 100" fill="none" xmlns="http://www.w3.org/2000/svg">
  <!-- Handgrenade body -->
  <ellipse cx="50" cy="60" rx="20" ry="25" fill="#2B2B2B" stroke="#4A4A4A" stroke-width="2"/>
  
  <!-- Grenade segments -->
  <line x1="30" y1="45" x2="70" y2="45" stroke="#4A4A4A" stroke-width="1"/>
  <line x1="30" y1="55" x2="70" y2="55" stroke="#4A4A4A" stroke-width="1"/>
  <line x1="30" y1="65" x2="70" y2="65" stroke="#4A4A4A" stroke-width="1"/>
  <line x1="30" y1="75" x2="70" y2="75" stroke="#4A4A4A" stroke-width="1"/>
  
  <!-- Vertical segments -->
  <line x1="40" y1="35" x2="40" y2="85" stroke="#4A4A4A" stroke-width="1"/>
  <line x1="60" y1="35" x2="60" y2="85" stroke="#4A4A4A" stroke-width="1"/>
  
  <!-- Grenade handle/spoon -->
  <path d="M45 35 Q40 30 35 35 Q30 40 35 45 L45 40 Z" fill="#4A4A4A" stroke="#666" stroke-width="1"/>
  
  <!-- Pin ring -->
  <circle cx="40" cy="32" r="3" fill="none" stroke="#FFD700" stroke-width="2"/>
  
  <!-- Safety pin -->
  <line x1="37" y1="29" x2="43" y2="35" stroke="#FFD700" stroke-width="2"/>
  
  <!-- Explosion effect (small sparks) -->
  <circle cx="25" cy="25" r="1" fill="#FF6B35" opacity="0.8"/>
  <circle cx="75" cy="30" r="1" fill="#FF6B35" opacity="0.8"/>
  <circle cx="80" cy="70" r="1" fill="#FF6B35" opacity="0.8"/>
  <circle cx="20" cy="75" r="1" fill="#FF6B35" opacity="0.8"/>
  
  <!-- Additional detail lines on body -->
  <line x1="50" y1="35" x2="50" y2="85" stroke="#4A4A4A" stroke-width="1"/>
</svg>
